Patient4_TMGait_0pt8_01_left_44_GRF.mot
version=1
nRows=32
nColumns=19
inDegrees=no
endheader
time	F1x	F1y	F1z	M1x	M1y	M1z	F2x	F2y	F2z	M2x	M2y	M2z	EC1x	EC1y	EC1z	EC2x	EC2y	EC2z
48.83	-6.1995	-8.7399	1.8382	1.2908	-1.6852	-4.8712	-22.8377	733.9685	-63.8825	279.0195	89.8258	880.3292	-0.0592	0.0182	-0.0073	-0.0462	0.0165	0.9585
48.8419	-4.4578	-5.381	1.3806	0.65528	-1.3759	-2.6451	-26.293	729.7886	-62.6881	277.6927	88.9072	873.2466	-0.0592	0.0182	-0.0073	-0.0462	0.0165	0.9585
48.8537	-2.96	-2.4993	0.94717	0.10778	-1.0655	-0.66964	-28.6534	726.0075	-61.3371	276.4492	87.3829	865.7491	-0.0592	0.0182	-0.0073	-0.0462	0.0165	0.9585
48.8656	-1.7863	-0.24727	0.57949	-0.32776	-0.78563	0.93827	-29.7944	723.2343	-59.8772	275.4793	85.3227	858.6668	-0.0592	0.0182	-0.0073	-0.0462	0.0165	0.9585
48.8774	-0.95301	1.3691	0.30247	-0.64996	-0.56525	2.1496	-29.8048	721.8484	-58.4216	274.9113	82.9194	852.6036	-0.0592	0.0182	-0.0073	-0.0462	0.0165	0.9585
48.8893	-0.42583	2.4368	0.11728	-0.8739	-0.4144	3.0035	-28.8607	722.0265	-57.0956	274.8089	80.3934	847.9245	-0.0592	0.0182	-0.0073	-0.0462	0.0165	0.9585
48.9011	-0.14561	3.0653	0.01877	-1.0151	-0.33617	3.5486	-27.1427	723.7157	-56.007	275.1635	77.929	844.6831	-0.0592	0.0182	-0.0073	-0.0462	0.0165	0.9585
48.913	-0.060954	3.3539	-0.017844	-1.0869	-0.32134	3.8254	-24.7953	726.7362	-55.2215	275.9253	75.642	842.7506	-0.0592	0.0182	-0.0073	-0.0462	0.0165	0.9585
48.9249	-0.11733	3.3845	-0.0080104	-1.0973	-0.36514	3.8582	-21.9247	730.8113	-54.7776	277.0108	73.5968	841.8529	-0.0592	0.0182	-0.0073	-0.0462	0.0165	0.9585
48.9367	-0.28085	3.2041	0.03222	-1.0454	-0.46348	3.6659	-18.6144	735.599	-54.6661	278.3149	71.7896	841.6027	-0.0592	0.0182	-0.0073	-0.0462	0.0165	0.9585
48.9486	-0.52791	2.8138	0.091181	-0.91927	-0.60972	3.2077	-14.9114	740.8132	-54.8632	279.7457	70.1823	841.6683	-0.0592	0.0182	-0.0073	-0.0462	0.0165	0.9585
48.9604	-0.85076	2.1827	0.16333	-0.69893	-0.79961	2.4325	-10.8699	746.1983	-55.3202	281.2209	68.7092	841.7609	-0.0592	0.0182	-0.0073	-0.0462	0.0165	0.9585
48.9723	-1.2076	1.2413	0.24345	-0.35565	-1.0172	1.2483	-6.5573	751.5705	-55.9893	282.6778	67.3183	841.6846	-0.0592	0.0182	-0.0073	-0.0462	0.0165	0.9585
48.9841	-1.5616	-0.045951	0.32692	0.12694	-1.2399	-0.40108	-2.0485	756.7598	-56.8399	284.0551	65.9876	841.2697	-0.0592	0.0182	-0.0073	-0.0462	0.0165	0.9585
48.996	-1.8025	-1.6794	0.39659	0.75059	-1.4069	-2.5238	2.5319	761.502	-57.8635	285.2553	64.7413	840.2837	-0.0592	0.0182	-0.0073	-0.0462	0.0165	0.9585
49.0079	-1.7912	-3.561	0.4235	1.4821	-1.4261	-4.9859	7.0658	765.3639	-59.0934	286.1168	63.6547	838.3332	-0.0592	0.0182	-0.0073	-0.0462	0.0165	0.9585
49.0197	-1.3214	-5.4777	0.37555	2.2341	-1.1712	-7.5137	11.4152	767.7408	-60.5737	286.4161	62.8203	834.8532	-0.0592	0.0182	-0.0073	-0.0462	0.0165	0.9585
49.0316	-0.15968	-6.9998	0.20969	2.8305	-0.48789	-9.5187	15.4991	767.9826	-62.3129	285.9224	62.2851	829.2054	-0.0592	0.0182	-0.0073	-0.0462	0.0165	0.9585
49.0434	1.9862	-7.4228	-0.12072	2.9899	0.80378	-10.0766	19.2581	765.6133	-64.2507	284.4786	62.0246	820.9384	-0.0592	0.0182	-0.0073	-0.0462	0.0165	0.9585
49.0553	5.3626	-5.6912	-0.6757	2.2978	2.8853	-7.7992	22.6888	760.4565	-66.2293	282.049	61.9073	809.9061	-0.0592	0.0182	-0.0073	-0.0462	0.0165	0.9585
49.0671	10.1693	-0.41867	-1.5051	0.20928	5.9005	-0.86145	25.8181	752.7091	-68.0308	278.7386	61.7358	796.3596	-0.0592	0.0182	-0.0073	-0.0462	0.0165	0.9585
49.079	16.3474	10.0675	-2.6388	-3.9282	9.8667	12.9405	28.7123	742.9255	-69.4264	274.7803	61.2922	780.9187	-0.0592	0.0182	-0.0073	-0.0462	0.0165	0.9585
49.0909	23.4578	27.5017	-4.045	-10.7887	14.5615	35.8785	31.4419	731.8773	-70.2289	270.474	60.3896	764.43	-0.0592	0.0182	-0.0073	-0.0462	0.0165	0.9585
49.1027	30.4276	53.3073	-5.5888	-20.9196	19.373	69.8526	34.1139	720.292	-70.2936	266.0913	58.8596	747.6754	-0.0592	0.0182	-0.0073	-0.0462	0.0165	0.9585
49.1146	35.3162	87.9116	-6.9856	-34.4793	23.1389	115.4677	36.8427	708.5491	-69.5365	261.7602	56.5832	731.073	-0.0592	0.0182	-0.0073	-0.0462	0.0165	0.9585
49.1264	35.3437	130.1885	-7.6914	-51.0215	24.0897	171.2993	39.7397	696.3498	-67.9385	257.352	53.4953	714.3261	-0.0592	0.0182	-0.0073	-0.0462	0.0165	0.9585
49.1383	28.8663	178.6019	-7.1562	-69.9291	20.9239	235.4631	42.8903	682.7035	-65.5666	252.4737	49.6139	696.4377	-0.0592	0.0182	-0.0073	-0.0462	0.0165	0.9585
49.1501	17.0902	232.7346	-5.3028	-90.9763	13.9338	307.4625	46.2941	666.1741	-62.5076	246.5659	45.0038	675.9531	-0.0592	0.0182	-0.0073	-0.0462	0.0165	0.9585
49.162	2.4282	290.9283	-1.9815	-113.4355	3.7864	384.9287	49.8102	645.0745	-58.8708	238.9759	39.8052	651.1963	-0.0592	0.0182	-0.0073	-0.0462	0.0165	0.9585
49.1739	-13.0228	348.2259	3.3916	-135.3468	-9.3538	461.0514	53.1554	617.6411	-54.7246	229.0323	34.1834	620.4476	-0.0592	0.0182	-0.0073	-0.0462	0.0165	0.9585
49.1857	-27.2055	398.9612	10.4733	-154.5615	-24.1616	528.0388	55.8582	582.4601	-50.0466	216.1984	28.3053	582.3718	-0.0592	0.0182	-0.0073	-0.0462	0.0165	0.9585
49.1976	-38.5988	439.8207	18.1928	-169.8738	-38.6207	581.3108	57.3598	538.8592	-44.8389	200.2112	22.4055	536.392	-0.0592	0.0182	-0.0073	-0.0462	0.0165	0.9585
